<?xml version="1.0" standalone="no"?>
<!DOCTYPE svg PUBLIC "-//W3C//DTD SVG 20010904//EN"
 "http://www.w3.org/TR/2001/REC-SVG-20010904/DTD/svg10.dtd">
<svg version="1.0" xmlns="http://www.w3.org/2000/svg"
 width="1472.000000pt" height="1472.000000pt" viewBox="0 0 1472.000000 1472.000000"
 preserveAspectRatio="xMidYMid meet">
<metadata>
Created by potrace 1.14, written by Peter Selinger 2001-2017
</metadata>
<g transform="translate(0.000000,1472.000000) scale(0.100000,-0.100000)"
fill="#000000" stroke="none">
<path d="M10050 9954 c0 -1304 3 -1635 13 -1631 6 2 19 1 28 -4 8 -4 21 -4 29
1 8 5 21 5 30 0 9 -5 22 -5 30 0 7 4 24 4 36 0 14 -6 26 -5 29 0 3 6 15 6 30
0 15 -6 27 -6 30 0 3 6 15 6 30 0 15 -6 27 -6 30 0 3 6 15 6 30 0 15 -6 27 -6
30 0 3 6 15 6 30 0 15 -6 27 -6 30 0 3 6 15 6 30 0 14 -5 25 -6 25 -1 0 5 8 8
17 7 15 -1 17 17 17 192 0 175 6 222 23 175 7 -20 60 -89 108 -141 66 -73 216
-172 320 -212 59 -23 83 -31 105 -35 14 -3 36 -7 50 -10 231 -49 519 -4 720
112 119 69 303 235 333 300 6 13 14 23 19 23 4 0 8 7 8 15 0 8 5 15 10 15 6 0
10 6 10 14 0 8 4 16 8 18 8 3 94 170 99 191 1 7 13 44 27 84 24 67 28 83 41
151 3 15 8 34 10 42 15 51 21 246 11 350 -12 125 -15 150 -19 157 -3 5 -8 24
-11 44 -9 61 -63 218 -102 298 -63 129 -140 236 -241 335 -68 67 -96 88 -188
142 -76 46 -203 93 -295 110 -56 10 -258 12 -309 2 -25 -4 -59 -10 -76 -13
-126 -18 -331 -129 -435 -235 -35 -36 -93 -107 -124 -154 l-26 -39 0 667 0
666 -300 0 -300 0 0 -1636z m1320 233 c71 -17 155 -51 178 -74 7 -7 17 -13 21
-13 15 0 127 -115 159 -162 45 -65 96 -180 118 -263 27 -104 25 -285 -5 -390
-22 -81 -74 -193 -107 -235 -90 -112 -236 -219 -321 -235 -10 -2 -18 -4 -18
-5 0 -2 -34 -9 -77 -16 -194 -30 -388 37 -539 185 -43 43 -79 85 -79 95 0 9
-4 16 -9 16 -5 0 -16 21 -25 47 -24 69 -24 582 0 639 83 199 303 382 494 411
19 3 36 6 38 8 4 4 151 -4 172 -8z"/>
<path d="M6515 11502 c-39 -3 -41 -5 -63 -60 -12 -32 -22 -65 -22 -74 0 -9 -3
-18 -7 -20 -7 -2 -57 -132 -67 -173 -2 -5 -6 -17 -9 -25 -4 -8 -22 -58 -41
-110 -19 -52 -44 -120 -56 -150 -12 -30 -21 -56 -21 -57 1 -4 -3 -15 -49 -138
-23 -60 -43 -114 -44 -120 -2 -5 -6 -17 -9 -25 -12 -29 -38 -105 -42 -124 -2
-10 -9 -23 -14 -30 -5 -6 -9 -15 -9 -19 0 -7 -13 -44 -32 -92 -10 -25 -22 -60
-20 -60 1 0 -8 -25 -20 -55 -27 -68 -92 -246 -132 -360 -16 -47 -33 -94 -38
-105 -11 -23 -60 -155 -63 -170 -2 -5 -6 -16 -10 -22 -5 -7 -5 -13 -1 -13 3 0
2 -6 -3 -12 -6 -7 -18 -38 -28 -68 -10 -30 -23 -68 -31 -85 -7 -16 -34 -90
-60 -164 l-48 -134 -22 48 c-12 26 -26 57 -29 69 -4 11 -8 23 -9 26 -6 13 -37
91 -167 420 -78 195 -150 375 -161 398 l-19 44 27 71 c15 40 32 86 39 102 7
17 23 59 36 95 12 36 25 70 29 75 3 6 13 30 20 55 7 25 17 50 20 55 4 6 20 46
35 90 16 44 33 86 38 93 5 6 7 12 4 12 -5 0 26 85 53 145 9 20 39 103 106 285
19 52 39 104 44 115 13 27 59 151 72 195 5 19 15 38 21 42 6 4 9 10 5 13 -12
13 -559 7 -574 -6 -8 -6 -13 -14 -10 -16 2 -2 -7 -34 -21 -71 -13 -37 -40
-114 -60 -172 -19 -58 -51 -148 -70 -200 -19 -52 -36 -102 -38 -110 -3 -12
-76 -220 -157 -450 -7 -20 -11 -11 -128 330 -54 157 -117 339 -140 405 -23 66
-43 125 -44 130 -1 6 -4 15 -7 20 -4 6 -14 37 -24 70 -10 33 -21 64 -25 68 -8
9 -558 12 -567 3 -4 -3 3 -30 15 -59 12 -29 26 -66 31 -82 5 -17 30 -84 56
-150 26 -66 60 -158 77 -204 16 -46 34 -95 40 -110 6 -14 12 -28 13 -31 1 -3
6 -16 12 -30 6 -14 20 -54 32 -89 12 -36 27 -73 32 -83 6 -11 12 -27 14 -36 2
-9 9 -30 16 -47 6 -16 13 -36 15 -44 1 -7 7 -18 13 -24 6 -6 11 -19 11 -29 0
-10 4 -26 9 -36 5 -9 23 -53 39 -97 16 -44 33 -89 37 -100 5 -11 9 -22 10 -25
1 -3 5 -14 9 -25 4 -11 12 -31 17 -45 5 -14 14 -38 20 -55 13 -33 12 -65 -2
-80 -5 -5 -9 -15 -9 -23 0 -8 -7 -30 -16 -50 -9 -21 -23 -53 -31 -72 -8 -19
-17 -42 -18 -50 -3 -12 -64 -170 -130 -335 -5 -11 -9 -22 -10 -25 -1 -3 -5
-14 -10 -25 -4 -11 -17 -42 -27 -70 -10 -27 -22 -59 -27 -70 -5 -11 -24 -58
-41 -105 -18 -47 -38 -97 -45 -113 l-12 -27 -10 22 c-13 27 -25 58 -28 74 -2
6 -22 60 -44 120 -23 60 -44 117 -46 126 -2 9 -13 38 -24 64 -12 26 -21 53
-21 60 0 8 -4 22 -10 32 -5 9 -26 62 -46 117 -19 55 -39 109 -44 120 -5 11
-41 110 -80 220 -40 110 -76 209 -80 220 -26 65 -191 516 -195 530 -1 6 -8 24
-14 40 -7 17 -24 62 -37 100 -14 39 -31 86 -39 105 -12 32 -17 47 -25 75 -2 6
-16 42 -32 80 -16 39 -32 81 -34 94 -3 13 -13 43 -23 65 -10 23 -26 66 -36 96
-10 30 -20 60 -24 65 -3 6 -6 15 -6 20 0 6 -119 11 -332 13 -183 1 -333 -1
-333 -6 0 -9 98 -256 205 -517 5 -11 9 -23 10 -27 2 -5 4 -10 5 -13 1 -3 3 -8
5 -12 3 -13 16 -46 31 -80 8 -18 15 -36 16 -40 1 -5 17 -44 36 -88 19 -44 34
-86 35 -92 0 -7 5 -13 10 -13 6 0 8 -3 5 -6 -3 -3 11 -45 32 -95 21 -49 37
-89 35 -89 -2 0 7 -24 19 -52 22 -50 37 -87 41 -98 1 -3 9 -22 18 -44 9 -21
17 -44 17 -50 0 -7 4 -16 8 -22 5 -5 28 -58 51 -119 44 -116 49 -128 75 -187
9 -20 16 -38 16 -41 0 -2 8 -22 17 -43 9 -22 17 -41 17 -44 1 -3 9 -26 20 -50
10 -25 22 -54 26 -65 4 -11 13 -33 20 -50 8 -16 14 -35 15 -41 2 -5 14 -36 29
-67 14 -32 26 -61 26 -66 0 -5 11 -34 25 -65 14 -31 22 -56 19 -56 -4 0 -1 -6
5 -13 6 -8 17 -33 25 -56 9 -23 22 -56 29 -74 38 -87 80 -193 80 -204 0 -7 4
-13 9 -13 4 0 8 -6 8 -13 0 -13 38 -113 67 -174 8 -17 16 -37 17 -45 2 -7 8
-24 13 -38 6 -14 34 -83 63 -155 28 -71 56 -135 61 -141 12 -15 58 -24 65 -13
2 5 15 4 28 -1 12 -4 29 -5 36 0 7 4 19 6 25 3 20 -7 175 -9 175 -1 0 4 14 3
30 -2 17 -5 30 -5 30 0 0 5 13 5 28 0 16 -4 35 -4 43 1 8 4 21 4 28 0 21 -14
46 -2 58 27 6 15 30 72 53 127 66 159 111 268 125 300 27 60 176 420 179 430
2 6 8 21 13 35 6 14 28 66 48 115 21 50 45 108 55 130 10 22 28 65 40 95 26
64 40 83 40 54 0 -12 3 -23 6 -27 6 -6 73 -154 78 -172 1 -5 8 -21 14 -35 6
-14 30 -70 53 -125 22 -55 47 -113 54 -130 8 -16 55 -129 105 -250 50 -121 97
-233 105 -250 7 -16 25 -59 39 -95 15 -36 31 -74 35 -85 5 -11 16 -38 26 -60
30 -74 38 -85 59 -86 141 -4 396 -2 396 3 0 4 13 3 30 -2 16 -5 32 -5 35 -1 2
5 15 6 28 4 20 -4 25 2 41 49 11 29 23 58 27 64 5 6 6 14 2 17 -3 4 -1 7 6 7
7 0 9 5 6 10 -3 6 -1 10 4 10 6 0 10 3 9 8 -2 9 9 47 27 87 7 17 32 77 55 135
23 58 53 132 67 165 15 33 26 66 26 72 0 7 3 13 7 13 4 0 7 6 7 13 0 6 15 45
33 86 18 41 33 79 35 85 1 6 7 22 12 36 6 14 25 61 43 105 18 44 37 91 43 105
5 14 11 30 13 35 3 11 191 480 204 510 24 53 91 222 95 236 3 15 46 123 65
164 5 11 28 67 51 125 22 58 46 116 52 130 5 14 11 30 13 35 2 9 125 313 149
370 4 11 9 22 9 25 1 3 16 41 33 85 18 44 38 94 44 110 7 17 12 33 11 38 -1 4
2 7 6 7 5 0 9 6 9 13 1 13 67 180 84 210 8 14 5 17 -18 18 -119 2 -576 3 -608
1z"/>
<path d="M8208 10705 c-2 -2 -28 -6 -58 -8 -30 -3 -65 -8 -76 -10 -12 -3 -37
-8 -56 -11 -20 -3 -47 -10 -62 -15 -14 -6 -26 -8 -26 -5 0 2 -13 -2 -30 -11
-16 -8 -31 -15 -32 -15 -29 -1 -162 -63 -223 -104 -22 -14 -48 -32 -59 -39
-75 -50 -150 -119 -218 -202 -32 -39 -63 -77 -70 -86 -36 -43 -111 -195 -147
-294 -62 -176 -83 -485 -45 -655 10 -48 14 -65 20 -100 4 -19 10 -39 14 -45 4
-5 10 -22 14 -37 11 -48 73 -171 126 -253 47 -71 160 -214 160 -201 0 2 13 -8
28 -22 49 -48 92 -82 101 -82 5 0 11 -4 13 -9 4 -10 116 -79 168 -103 106 -49
194 -79 278 -94 12 -2 34 -6 50 -9 46 -10 143 -17 232 -18 85 -1 247 10 259
17 4 3 27 7 51 10 45 7 241 65 250 76 3 3 28 16 55 28 180 85 360 252 460 425
30 53 28 60 -25 73 -14 4 -97 27 -185 51 -232 64 -266 73 -270 73 -1 0 -15
-20 -30 -45 -72 -124 -238 -231 -402 -260 -70 -13 -216 -8 -298 9 -133 28
-295 155 -368 286 -39 72 -62 140 -82 253 l-5 27 172 0 c95 0 504 1 909 1 562
0 736 3 738 12 6 41 7 335 1 365 -5 20 -11 51 -13 67 -18 105 -99 313 -167
423 -94 154 -238 290 -415 393 -93 54 -258 112 -355 124 -14 2 -43 6 -65 10
-41 7 -312 15 -317 10z m202 -439 c25 -3 59 -10 77 -15 35 -10 155 -62 163
-71 3 -3 25 -21 50 -40 25 -19 54 -46 65 -60 11 -13 27 -32 35 -40 25 -27 98
-172 110 -220 13 -57 18 -79 22 -110 l3 -25 -614 -1 -613 -1 6 41 c9 63 11 70
19 84 5 6 5 17 2 22 -3 6 -1 10 5 10 6 0 9 4 6 9 -6 9 54 139 77 168 6 9 41
46 77 83 92 95 212 155 327 164 12 1 25 4 28 7 5 6 80 3 155 -5z"/>
<path d="M9779 6466 c-2 -2 -4 -299 -3 -660 0 -361 -3 -656 -6 -656 -4 0 -12
10 -18 23 -25 52 -130 163 -214 225 -135 99 -267 158 -408 180 -99 15 -361 2
-387 -20 -7 -6 -13 -8 -13 -4 0 3 -22 -3 -50 -13 -27 -11 -50 -17 -50 -15 0 2
-38 -16 -85 -41 -106 -55 -161 -95 -244 -175 -76 -74 -164 -189 -192 -252 -7
-16 -16 -28 -21 -28 -4 0 -8 -6 -8 -14 0 -8 -9 -31 -20 -53 -33 -64 -40 -83
-75 -212 -25 -95 -31 -122 -41 -221 -12 -104 -5 -325 11 -400 3 -14 8 -39 10
-56 6 -43 55 -196 67 -211 6 -7 8 -13 4 -13 -10 0 71 -146 126 -227 42 -63
162 -193 220 -238 124 -99 340 -197 458 -210 19 -2 62 -8 95 -12 100 -14 246
-6 340 19 22 5 47 12 56 13 36 7 189 78 239 111 28 19 54 34 56 34 8 0 107 94
160 152 11 13 33 42 48 66 14 23 28 42 29 42 2 0 4 -19 6 -42 8 -149 29 -213
87 -274 83 -85 178 -116 339 -110 96 4 127 7 195 21 8 2 18 4 21 4 3 1 5 111
5 244 l0 244 -42 11 c-50 13 -84 55 -91 110 -2 20 -5 628 -5 1350 l-1 1312
-297 0 c-163 0 -299 -2 -301 -4z m-480 -1406 c24 -6 51 -15 60 -20 9 -4 30
-14 46 -21 62 -28 142 -86 212 -154 40 -38 73 -75 73 -82 0 -6 4 -13 8 -15 5
-1 24 -30 42 -63 l34 -60 2 -295 c1 -292 1 -295 -23 -340 -38 -74 -56 -99
-111 -156 -84 -87 -241 -168 -352 -181 -52 -6 -156 -5 -190 2 -19 4 -42 9 -50
10 -72 11 -213 90 -282 158 -77 75 -160 206 -172 271 -3 14 -7 29 -10 34 -13
21 -35 259 -26 282 1 3 3 19 5 35 9 89 33 182 62 237 7 15 12 29 11 30 -1 2
17 32 41 67 98 143 240 241 396 271 54 10 170 5 224 -10z"/>
<path d="M11103 6350 c1 -66 -2 -120 -6 -120 -4 0 -4 -8 0 -17 10 -21 9 -65
-1 -82 -4 -6 -4 -11 1 -11 4 0 7 -55 5 -122 l-3 -123 301 -1 300 0 0 138 c1
76 1 176 1 223 0 47 0 119 -1 160 l0 75 -299 0 -299 0 1 -120z"/>
<path d="M1515 6401 c-2 -2 -26 -4 -52 -6 -52 -2 -178 -20 -178 -25 0 -1 -9
-3 -20 -4 -64 -8 -217 -64 -320 -116 -65 -34 -155 -93 -155 -102 0 -5 -4 -8
-10 -8 -11 0 -99 -87 -152 -150 -79 -96 -152 -280 -172 -438 -11 -83 -7 -285
6 -297 4 -4 4 -13 1 -21 -3 -8 0 -20 6 -28 6 -7 8 -15 5 -19 -7 -7 31 -112 52
-144 8 -13 12 -23 9 -23 -10 0 56 -85 107 -138 50 -52 175 -142 197 -142 6 0
11 -5 11 -10 0 -6 3 -9 8 -8 4 1 38 -13 75 -30 38 -18 71 -32 74 -32 3 0 19
-6 36 -14 18 -8 61 -24 97 -36 36 -12 72 -25 80 -28 8 -3 20 -6 26 -7 15 -4
154 -45 174 -53 8 -3 20 -6 26 -7 41 -9 368 -113 414 -132 8 -4 17 -7 20 -7
15 -4 147 -72 164 -85 89 -71 120 -130 123 -234 2 -96 -23 -163 -84 -219 -60
-55 -116 -78 -248 -104 -68 -13 -316 -13 -375 0 -14 3 -45 9 -70 12 -25 3 -53
10 -62 15 -9 5 -21 8 -25 7 -44 -10 -405 136 -543 220 -19 12 -42 25 -50 29
-8 3 -17 9 -20 12 -14 16 -90 71 -98 71 -5 0 -15 -15 -22 -32 -8 -18 -20 -40
-27 -50 -8 -9 -15 -22 -17 -30 -1 -8 -11 -29 -22 -48 -18 -32 -104 -200 -162
-316 -26 -52 -26 -51 58 -103 126 -77 255 -143 360 -184 36 -13 74 -28 85 -32
21 -9 29 -11 60 -19 11 -3 58 -17 105 -30 47 -14 99 -28 115 -31 17 -3 40 -8
53 -10 12 -3 33 -7 47 -10 14 -3 37 -8 53 -11 15 -3 43 -7 62 -9 19 -1 71 -7
115 -11 112 -11 332 -9 445 6 92 11 108 14 168 26 54 10 138 37 187 59 28 12
52 22 55 22 13 0 102 51 165 93 65 44 147 120 193 180 52 67 123 224 137 300
3 14 9 47 14 74 10 53 8 298 -2 356 -13 66 -15 75 -37 135 -12 33 -24 68 -27
78 -3 9 -9 17 -14 17 -5 0 -9 5 -9 10 0 43 -166 214 -260 269 -82 47 -257 130
-290 137 -3 0 -18 7 -35 14 -16 7 -32 14 -35 15 -3 0 -36 10 -75 22 -38 12
-95 29 -125 37 -30 8 -88 23 -127 34 -40 11 -73 17 -73 15 0 -3 -6 0 -14 6 -8
7 -25 13 -38 15 -13 1 -30 5 -38 8 -8 3 -44 14 -80 23 -36 9 -70 21 -76 26 -6
5 -14 6 -17 2 -4 -3 -13 -1 -21 6 -8 6 -24 14 -36 16 -41 8 -151 64 -200 102
-147 115 -138 374 17 485 85 61 154 82 303 94 92 7 264 -3 278 -16 1 -1 10 -3
20 -4 39 -5 210 -57 292 -89 84 -33 208 -99 283 -151 60 -42 68 -46 74 -29 4
10 21 43 39 73 29 52 100 182 131 242 8 15 18 30 24 33 5 4 9 15 9 25 0 10 3
20 8 22 4 2 17 21 29 44 l22 41 -27 20 c-15 11 -34 22 -42 26 -8 4 -37 21 -65
37 -165 99 -427 200 -606 235 -99 20 -153 28 -214 32 -91 6 -246 9 -250 4z"/>
<path d="M3458 6303 c-2 -5 -4 -176 -4 -380 1 -325 -1 -373 -14 -374 -8 0 -77
0 -152 0 -137 1 -138 1 -139 -21 -6 -147 -2 -438 6 -441 6 -2 74 -3 153 -2 78
0 143 -2 143 -5 1 -3 3 -327 4 -720 2 -393 4 -715 5 -715 1 0 3 -18 6 -40 6
-49 30 -127 57 -180 45 -88 207 -213 300 -231 12 -2 47 -10 78 -17 77 -19 246
-19 349 -1 47 9 93 16 103 17 9 1 17 4 17 7 0 3 13 6 29 7 16 1 54 11 85 22
31 11 56 16 56 13 0 -4 4 -2 8 3 4 6 36 20 72 33 36 13 74 29 86 37 l21 14
-24 93 c-14 51 -26 102 -28 113 -2 11 -12 54 -24 95 -11 41 -25 94 -31 118
-12 46 -15 47 -57 31 -15 -6 -28 -9 -28 -8 0 1 -11 -4 -25 -11 -47 -25 -165
-48 -235 -47 -113 3 -188 60 -211 158 -8 37 -12 1182 -4 1202 4 10 63 13 245
13 l240 0 3 231 2 231 -197 0 c-109 0 -220 1 -248 1 l-50 1 1 380 0 380 -297
0 c-164 0 -299 -3 -301 -7z"/>
<path d="M13337 5584 c-1 -1 -31 -5 -67 -9 -167 -18 -377 -94 -516 -187 -27
-18 -50 -36 -52 -40 -2 -4 -8 -8 -13 -8 -9 0 -33 -20 -103 -85 -65 -60 -166
-199 -211 -290 -11 -22 -24 -43 -30 -47 -5 -4 -6 -8 -1 -8 5 0 4 -6 -1 -12
-11 -13 -52 -121 -58 -148 -2 -8 -11 -41 -20 -73 -9 -32 -18 -83 -18 -113 -1
-30 -5 -54 -9 -54 -9 0 -3 -312 6 -355 4 -16 9 -38 12 -47 3 -10 7 -30 10 -45
6 -34 41 -138 59 -178 7 -16 25 -56 39 -88 71 -155 235 -341 386 -439 116 -75
220 -128 251 -128 8 0 19 -4 24 -8 10 -8 82 -28 140 -38 17 -2 37 -7 45 -9 30
-8 178 -19 260 -19 120 0 227 12 338 39 12 3 30 7 40 9 10 2 35 11 55 20 20 8
37 13 37 10 0 -2 15 3 33 13 17 9 34 17 37 18 3 0 39 19 81 42 132 73 263 188
351 307 21 28 41 56 45 62 25 33 60 101 105 204 25 55 69 203 63 209 -3 2 -1
9 4 15 5 6 12 36 16 66 10 67 14 351 6 365 -3 6 -6 24 -7 42 -6 101 -100 356
-167 456 -10 15 -15 27 -10 27 4 0 3 4 -3 8 -7 4 -29 30 -51 59 -78 104 -155
177 -263 249 -66 45 -203 118 -222 119 -3 0 -10 3 -14 8 -4 4 -16 7 -26 7 -10
0 -18 5 -18 10 0 6 -3 9 -7 8 -11 -2 -86 13 -98 21 -5 3 -14 6 -20 7 -38 7
-105 17 -130 21 -34 4 -304 11 -308 7z m253 -519 c6 -3 20 -8 31 -10 31 -6
141 -59 170 -81 30 -24 118 -111 145 -145 29 -35 98 -182 110 -231 1 -5 3 -9
4 -10 1 -2 3 -14 5 -28 1 -14 7 -43 12 -65 12 -57 6 -276 -9 -301 -3 -5 -9
-25 -13 -44 -6 -33 -63 -169 -75 -180 -3 -3 -17 -23 -31 -45 -58 -87 -150
-166 -242 -209 -45 -20 -72 -29 -137 -43 -25 -5 -183 -4 -214 2 -133 26 -271
115 -358 232 -57 78 -94 162 -127 296 -13 53 -6 362 9 362 1 0 4 14 6 30 3 17
12 43 20 59 8 16 14 33 14 38 0 23 86 153 133 201 89 91 182 145 297 171 53
13 231 13 250 1z"/>
<path d="M5163 5542 c-10 -7 -10 -1599 0 -1667 15 -100 21 -129 43 -209 27
-94 80 -208 120 -256 13 -15 24 -30 24 -34 0 -3 19 -23 43 -45 69 -65 208
-140 260 -141 9 0 17 -4 17 -8 0 -4 8 -8 18 -9 9 -1 44 -5 77 -9 116 -13 279
-7 380 16 22 5 51 11 65 13 77 15 316 122 350 157 3 3 25 21 50 40 58 45 132
121 183 188 21 28 41 52 44 52 2 0 1 -4 -2 -10 -3 -5 -3 -10 2 -10 4 0 8 -24
8 -52 -1 -215 85 -334 269 -372 62 -13 140 -14 256 -1 67 8 100 12 113 14 11
2 9 491 -3 492 -56 7 -118 50 -121 83 0 6 -2 20 -5 31 -2 11 -4 408 -5 882 l0
861 -300 0 -299 0 -1 -51 c0 -29 0 -353 0 -722 0 -472 -3 -679 -11 -700 -12
-30 -73 -130 -93 -151 -6 -7 -22 -25 -36 -41 -65 -77 -226 -180 -310 -197 -13
-3 -35 -8 -49 -11 -44 -10 -187 -7 -209 4 -11 7 -21 9 -21 5 0 -3 -7 0 -17 7
-9 8 -19 13 -22 13 -26 -5 -97 50 -129 101 -47 72 -59 105 -88 240 -4 17 -8
359 -9 760 -2 402 -4 733 -4 736 -1 9 -575 9 -588 1z"/>
<path d="M11106 5541 c-2 -3 -3 -30 -3 -59 1 -28 -2 -52 -6 -52 -4 0 -4 -8 0
-17 10 -21 9 -65 -1 -82 -4 -6 -4 -11 1 -11 4 0 8 -18 8 -40 0 -22 -4 -40 -8
-40 -5 0 -5 -5 -1 -11 10 -16 11 -279 1 -279 -5 0 -5 -5 -1 -11 10 -17 11 -61
1 -81 -4 -10 -4 -18 0 -18 4 0 8 -58 8 -130 0 -71 -4 -130 -8 -130 -5 0 -5 -5
-1 -11 9 -16 11 -99 1 -99 -4 0 -4 -8 0 -17 10 -21 9 -65 -1 -82 -4 -6 -4 -11
1 -11 4 0 8 -18 8 -40 0 -22 -4 -40 -8 -40 -5 0 -5 -5 -1 -11 9 -16 11 -279 1
-279 -4 0 -4 -8 0 -17 10 -21 9 -65 -1 -82 -4 -6 -4 -11 1 -11 4 0 8 -11 8
-25 0 -14 -4 -25 -8 -25 -4 0 -4 -8 0 -17 10 -21 9 -65 -1 -82 -4 -6 -4 -11 1
-11 4 0 8 -18 8 -40 0 -22 -4 -40 -8 -40 -5 0 -5 -5 -1 -11 9 -15 9 -283 0
-298 -4 -6 -4 -11 1 -11 4 0 8 -13 8 -30 0 -16 -4 -30 -8 -30 -5 0 -5 -6 0
-12 4 -7 6 -22 4 -32 -2 -13 2 -17 12 -13 7 3 20 1 27 -3 8 -5 21 -5 30 0 9 5
22 5 30 0 8 -5 21 -5 30 0 9 5 22 5 30 0 8 -5 21 -5 31 1 11 6 20 5 24 -1 3
-5 15 -6 28 -1 12 5 32 5 44 0 13 -5 25 -4 28 1 4 6 13 7 24 1 10 -6 23 -6 31
-1 8 5 21 5 30 0 9 -5 22 -5 30 0 8 5 21 5 30 0 9 -5 23 -4 32 1 10 6 19 6 23
0 3 -6 13 -7 21 -4 9 3 27 6 41 7 l24 1 0 1080 c0 594 -1 1121 -1 1171 l0 92
-295 0 c-162 0 -297 -3 -299 -7z"/>
</g>
</svg>
